<svg height="32" viewBox="0 0 32 32" width="32" xmlns="http://www.w3.org/2000/svg"><path style='fill: white;' d="m19.384 1.015c.136 1.054.306 2.075.442 3.094 0 .102 0 .17.034.272.102.34 1.802.918 2.109.68.748-.544 1.497-1.088 2.211-1.666.272-.238.476-.17.714 0 1.631 1.122 2.992 2.516 4.114 4.148.17.238.17.409 0 .646-.578.714-1.122 1.496-1.666 2.211-.17.238-.238.442-.068.714.102.17.204.34.238.511.136.782.611 1.02 1.326 1.054s1.429.204 2.109.272c.306.034.409.136.476.408.272 1.428.34 2.891.204 4.319-.033.544-.136 1.121-.238 1.666-.033.136-.204.306-.34.34-.918.17-1.87.306-2.789.409-.306.035-.476.136-.544.442-.034.17-.101.374-.204.545-.476.645-.272 1.19.238 1.734.476.544.884 1.122 1.292 1.7.101.136.101.442.033.578-1.121 1.667-2.516 3.061-4.182 4.217-.238.17-.409.136-.646-.034-.714-.579-1.496-1.122-2.21-1.666-.205-.17-.409-.238-.646-.069-.17.101-.374.204-.579.238-.782.136-.986.646-1.02 1.36s-.17 1.462-.306 2.176c-.035.136-.205.34-.374.374-2.006.408-3.979.408-5.985.034-.272-.034-.374-.17-.408-.441-.102-.919-.272-1.836-.374-2.755-.034-.306-.136-.476-.442-.544-.136-.034-.306-.102-.442-.17-.68-.476-1.258-.34-1.87.238-.476.476-1.089.816-1.632 1.259-.238.204-.409.204-.646.034-1.666-1.156-3.06-2.55-4.216-4.216-.17-.238-.136-.409.034-.646.578-.714 1.122-1.496 1.667-2.21.17-.205.238-.409.068-.646-.102-.136-.204-.306-.204-.476-.136-.918-.748-1.089-1.564-1.156-.68-.034-1.36-.17-2.006-.306-.136-.033-.34-.238-.374-.374-.408-2.006-.408-3.979 0-5.985.034-.136.238-.34.374-.34.952-.17 1.904-.272 2.856-.442.17-.034.306-.204.442-.34.034-.034.034-.136.068-.204.68-.952.408-1.768-.34-2.55-.374-.409-.714-.884-1.021-1.326-.102-.136-.102-.409-.034-.544 1.122-1.701 2.55-3.094 4.216-4.251.238-.17.374-.136.578.034.714.579 1.496 1.122 2.211 1.667.238.17.442.238.68.068.17-.101.374-.204.578-.238.782-.136.952-.646.986-1.326.034-.714.204-1.428.272-2.142.034-.34.17-.442.476-.477 2.143-.34 4.217-.34 6.326.101zm-9.113 15.167c-.034 3.163 2.55 5.713 5.713 5.747 3.129 0 5.747-2.584 5.747-5.713s-2.584-5.679-5.713-5.713c-3.163-.034-5.747 2.516-5.747 5.679z"/></svg>
